<mxfile host="app.diagrams.net" agent="Mozilla/5.0 (Windows NT 10.0; Win64; x64) AppleWebKit/537.36 (KHTML, like Gecko) Chrome/132.0.0.0 Safari/537.36" version="26.0.10">
  <diagram id="C5RBs43oDa-KdzZeNtuy" name="Page-1">
    <mxGraphModel dx="1329" dy="738" grid="1" gridSize="10" guides="1" tooltips="1" connect="1" arrows="1" fold="1" page="1" pageScale="1" pageWidth="827" pageHeight="1169" math="0" shadow="0">
      <root>
        <mxCell id="WIyWlLk6GJQsqaUBKTNV-0" />
        <mxCell id="WIyWlLk6GJQsqaUBKTNV-1" parent="WIyWlLk6GJQsqaUBKTNV-0" />
        <mxCell id="aukn40du1mq2aLp-cY4K-0" value="Item Manager" style="swimlane;whiteSpace=wrap;html=1;" vertex="1" parent="WIyWlLk6GJQsqaUBKTNV-1">
          <mxGeometry x="313.5" y="160" width="200" height="200" as="geometry" />
        </mxCell>
        <mxCell id="aukn40du1mq2aLp-cY4K-9" value="PressBigArmour&lt;div&gt;&lt;br&gt;&lt;/div&gt;" style="text;html=1;align=center;verticalAlign=middle;whiteSpace=wrap;rounded=0;" vertex="1" parent="aukn40du1mq2aLp-cY4K-0">
          <mxGeometry x="26.5" y="60" width="60" height="40" as="geometry" />
        </mxCell>
        <mxCell id="aukn40du1mq2aLp-cY4K-10" value="Send Hero" style="text;html=1;align=center;verticalAlign=middle;whiteSpace=wrap;rounded=0;" vertex="1" parent="aukn40du1mq2aLp-cY4K-0">
          <mxGeometry x="16" y="85" width="60" height="30" as="geometry" />
        </mxCell>
        <mxCell id="aukn40du1mq2aLp-cY4K-14" value="Begin play" style="text;html=1;align=center;verticalAlign=middle;whiteSpace=wrap;rounded=0;" vertex="1" parent="aukn40du1mq2aLp-cY4K-0">
          <mxGeometry x="16" y="35" width="60" height="30" as="geometry" />
        </mxCell>
        <mxCell id="aukn40du1mq2aLp-cY4K-15" value="&lt;span style=&quot;color: rgb(0, 0, 0); font-family: Helvetica; font-size: 12px; font-style: normal; font-variant-ligatures: normal; font-variant-caps: normal; font-weight: 400; letter-spacing: normal; orphans: 2; text-align: center; text-indent: 0px; text-transform: none; widows: 2; word-spacing: 0px; -webkit-text-stroke-width: 0px; white-space: normal; background-color: rgb(251, 251, 251); text-decoration-thickness: initial; text-decoration-style: initial; text-decoration-color: initial; display: inline !important; float: none;&quot;&gt;PressBigSword&lt;/span&gt;" style="text;whiteSpace=wrap;html=1;" vertex="1" parent="aukn40du1mq2aLp-cY4K-0">
          <mxGeometry x="16" y="115" width="120" height="40" as="geometry" />
        </mxCell>
        <mxCell id="aukn40du1mq2aLp-cY4K-2" value="Menu Manager" style="swimlane;whiteSpace=wrap;html=1;" vertex="1" parent="WIyWlLk6GJQsqaUBKTNV-1">
          <mxGeometry x="540" y="160" width="200" height="200" as="geometry">
            <mxRectangle x="540" y="160" width="120" height="30" as="alternateBounds" />
          </mxGeometry>
        </mxCell>
        <mxCell id="aukn40du1mq2aLp-cY4K-4" value="Begin play" style="text;html=1;align=center;verticalAlign=middle;whiteSpace=wrap;rounded=0;" vertex="1" parent="aukn40du1mq2aLp-cY4K-2">
          <mxGeometry y="20" width="60" height="30" as="geometry" />
        </mxCell>
        <mxCell id="aukn40du1mq2aLp-cY4K-16" value="&lt;span style=&quot;color: rgb(0, 0, 0); font-family: Helvetica; font-size: 12px; font-style: normal; font-variant-ligatures: normal; font-variant-caps: normal; font-weight: 400; letter-spacing: normal; orphans: 2; text-align: center; text-indent: 0px; text-transform: none; widows: 2; word-spacing: 0px; -webkit-text-stroke-width: 0px; white-space: normal; background-color: rgb(251, 251, 251); text-decoration-thickness: initial; text-decoration-style: initial; text-decoration-color: initial; float: none; display: inline !important;&quot;&gt;Opening Start&lt;/span&gt;" style="text;whiteSpace=wrap;html=1;" vertex="1" parent="aukn40du1mq2aLp-cY4K-2">
          <mxGeometry y="47" width="120" height="40" as="geometry" />
        </mxCell>
        <mxCell id="aukn40du1mq2aLp-cY4K-17" value="&lt;div style=&quot;text-align: center;&quot;&gt;&lt;span style=&quot;background-color: transparent; color: light-dark(rgb(0, 0, 0), rgb(255, 255, 255));&quot;&gt;EquipButton Event&lt;/span&gt;&lt;/div&gt;" style="text;whiteSpace=wrap;html=1;" vertex="1" parent="aukn40du1mq2aLp-cY4K-2">
          <mxGeometry y="70" width="120" height="40" as="geometry" />
        </mxCell>
        <mxCell id="aukn40du1mq2aLp-cY4K-18" value="&lt;div style=&quot;text-align: center;&quot;&gt;&lt;span style=&quot;background-color: transparent; color: light-dark(rgb(0, 0, 0), rgb(255, 255, 255));&quot;&gt;BackButton Event&lt;/span&gt;&lt;/div&gt;" style="text;whiteSpace=wrap;html=1;" vertex="1" parent="aukn40du1mq2aLp-cY4K-2">
          <mxGeometry y="100" width="120" height="40" as="geometry" />
        </mxCell>
        <mxCell id="aukn40du1mq2aLp-cY4K-19" value="&lt;div style=&quot;text-align: center;&quot;&gt;&lt;span style=&quot;background-color: transparent; color: light-dark(rgb(0, 0, 0), rgb(255, 255, 255));&quot;&gt;GameOverDispatch Event&lt;/span&gt;&lt;/div&gt;" style="text;whiteSpace=wrap;html=1;" vertex="1" parent="aukn40du1mq2aLp-cY4K-2">
          <mxGeometry y="130" width="120" height="40" as="geometry" />
        </mxCell>
        <mxCell id="aukn40du1mq2aLp-cY4K-3" value="Battle Manager Event" style="swimlane;whiteSpace=wrap;html=1;" vertex="1" parent="WIyWlLk6GJQsqaUBKTNV-1">
          <mxGeometry x="89" y="160" width="200" height="200" as="geometry" />
        </mxCell>
        <mxCell id="aukn40du1mq2aLp-cY4K-20" value="Begin play" style="text;html=1;align=center;verticalAlign=middle;whiteSpace=wrap;rounded=0;" vertex="1" parent="aukn40du1mq2aLp-cY4K-3">
          <mxGeometry x="10" y="30" width="60" height="30" as="geometry" />
        </mxCell>
        <mxCell id="aukn40du1mq2aLp-cY4K-21" value="Enemy Set Up" style="text;html=1;align=center;verticalAlign=middle;whiteSpace=wrap;rounded=0;" vertex="1" parent="aukn40du1mq2aLp-cY4K-3">
          <mxGeometry x="10" y="50" width="80" height="30" as="geometry" />
        </mxCell>
        <mxCell id="aukn40du1mq2aLp-cY4K-22" value="Hero Set Up" style="text;html=1;align=center;verticalAlign=middle;whiteSpace=wrap;rounded=0;" vertex="1" parent="aukn40du1mq2aLp-cY4K-3">
          <mxGeometry x="7" y="70" width="80" height="30" as="geometry" />
        </mxCell>
        <mxCell id="aukn40du1mq2aLp-cY4K-25" value="Set Up Order" style="text;html=1;align=center;verticalAlign=middle;whiteSpace=wrap;rounded=0;" vertex="1" parent="aukn40du1mq2aLp-cY4K-3">
          <mxGeometry x="8" y="90" width="80" height="30" as="geometry" />
        </mxCell>
        <mxCell id="aukn40du1mq2aLp-cY4K-26" value="Next Turn" style="text;html=1;align=center;verticalAlign=middle;whiteSpace=wrap;rounded=0;" vertex="1" parent="aukn40du1mq2aLp-cY4K-3">
          <mxGeometry y="110" width="80" height="30" as="geometry" />
        </mxCell>
        <mxCell id="aukn40du1mq2aLp-cY4K-27" value="Combat" style="text;html=1;align=center;verticalAlign=middle;whiteSpace=wrap;rounded=0;" vertex="1" parent="aukn40du1mq2aLp-cY4K-3">
          <mxGeometry y="130" width="80" height="30" as="geometry" />
        </mxCell>
        <mxCell id="aukn40du1mq2aLp-cY4K-28" value="Reset" style="text;html=1;align=center;verticalAlign=middle;whiteSpace=wrap;rounded=0;" vertex="1" parent="aukn40du1mq2aLp-cY4K-3">
          <mxGeometry y="150" width="80" height="30" as="geometry" />
        </mxCell>
        <mxCell id="aukn40du1mq2aLp-cY4K-29" value="Start Combat" style="text;html=1;align=center;verticalAlign=middle;whiteSpace=wrap;rounded=0;" vertex="1" parent="aukn40du1mq2aLp-cY4K-3">
          <mxGeometry x="7" y="170" width="80" height="30" as="geometry" />
        </mxCell>
        <mxCell id="aukn40du1mq2aLp-cY4K-30" value="Dead" style="text;html=1;align=center;verticalAlign=middle;whiteSpace=wrap;rounded=0;" vertex="1" parent="aukn40du1mq2aLp-cY4K-3">
          <mxGeometry x="101" y="30" width="80" height="30" as="geometry" />
        </mxCell>
        <mxCell id="aukn40du1mq2aLp-cY4K-5" value="PlayerController" style="swimlane;whiteSpace=wrap;html=1;" vertex="1" parent="WIyWlLk6GJQsqaUBKTNV-1">
          <mxGeometry x="760" y="160" width="200" height="200" as="geometry">
            <mxRectangle x="540" y="160" width="120" height="30" as="alternateBounds" />
          </mxGeometry>
        </mxCell>
        <mxCell id="aukn40du1mq2aLp-cY4K-6" value="Press Big Armour Event" style="text;html=1;align=center;verticalAlign=middle;whiteSpace=wrap;rounded=0;" vertex="1" parent="aukn40du1mq2aLp-cY4K-5">
          <mxGeometry y="30" width="90" height="30" as="geometry" />
        </mxCell>
        <mxCell id="aukn40du1mq2aLp-cY4K-45" value="Press Big Sword Event" style="text;html=1;align=center;verticalAlign=middle;whiteSpace=wrap;rounded=0;" vertex="1" parent="aukn40du1mq2aLp-cY4K-5">
          <mxGeometry x="5" y="60" width="80" height="30" as="geometry" />
        </mxCell>
        <mxCell id="aukn40du1mq2aLp-cY4K-46" value="InputAction Left Click" style="text;html=1;align=center;verticalAlign=middle;whiteSpace=wrap;rounded=0;" vertex="1" parent="aukn40du1mq2aLp-cY4K-5">
          <mxGeometry x="5" y="90" width="80" height="30" as="geometry" />
        </mxCell>
        <mxCell id="aukn40du1mq2aLp-cY4K-7" value="GameMode Event Dispatchers" style="swimlane;whiteSpace=wrap;html=1;" vertex="1" parent="WIyWlLk6GJQsqaUBKTNV-1">
          <mxGeometry x="1010" y="600" width="200" height="200" as="geometry">
            <mxRectangle x="540" y="160" width="120" height="30" as="alternateBounds" />
          </mxGeometry>
        </mxCell>
        <mxCell id="aukn40du1mq2aLp-cY4K-8" value="Press Button" style="text;html=1;align=center;verticalAlign=middle;whiteSpace=wrap;rounded=0;" vertex="1" parent="aukn40du1mq2aLp-cY4K-7">
          <mxGeometry x="1" y="24" width="70" height="30" as="geometry" />
        </mxCell>
        <mxCell id="aukn40du1mq2aLp-cY4K-47" value="EquipButton" style="text;html=1;align=center;verticalAlign=middle;whiteSpace=wrap;rounded=0;" vertex="1" parent="aukn40du1mq2aLp-cY4K-7">
          <mxGeometry y="53" width="70" height="30" as="geometry" />
        </mxCell>
        <mxCell id="aukn40du1mq2aLp-cY4K-48" value="PressBigArmour&lt;span style=&quot;color: rgba(0, 0, 0, 0); font-family: monospace; font-size: 0px; text-align: start; text-wrap-mode: nowrap;&quot;&gt;%3CmxGraphModel%3E%3Croot%3E%3CmxCell%20id%3D%220%22%2F%3E%3CmxCell%20id%3D%221%22%20parent%3D%220%22%2F%3E%3CmxCell%20id%3D%222%22%20value%3D%22EquipButton%22%20style%3D%22text%3Bhtml%3D1%3Balign%3Dcenter%3BverticalAlign%3Dmiddle%3BwhiteSpace%3Dwrap%3Brounded%3D0%3B%22%20vertex%3D%221%22%20parent%3D%221%22%3E%3CmxGeometry%20x%3D%221050%22%20y%3D%22660%22%20width%3D%2270%22%20height%3D%2230%22%20as%3D%22geometry%22%2F%3E%3C%2FmxCell%3E%3C%2Froot%3E%3C%2FmxGraphModel%3E&lt;/span&gt;" style="text;html=1;align=center;verticalAlign=middle;whiteSpace=wrap;rounded=0;" vertex="1" parent="aukn40du1mq2aLp-cY4K-7">
          <mxGeometry x="12" y="73" width="70" height="30" as="geometry" />
        </mxCell>
        <mxCell id="aukn40du1mq2aLp-cY4K-49" value="PressBigSword" style="text;html=1;align=center;verticalAlign=middle;whiteSpace=wrap;rounded=0;" vertex="1" parent="aukn40du1mq2aLp-cY4K-7">
          <mxGeometry x="9" y="91" width="70" height="30" as="geometry" />
        </mxCell>
        <mxCell id="aukn40du1mq2aLp-cY4K-50" value="BackButton" style="text;html=1;align=center;verticalAlign=middle;whiteSpace=wrap;rounded=0;" vertex="1" parent="aukn40du1mq2aLp-cY4K-7">
          <mxGeometry x="5" y="108" width="70" height="30" as="geometry" />
        </mxCell>
        <mxCell id="aukn40du1mq2aLp-cY4K-51" value="OpeningStart" style="text;html=1;align=center;verticalAlign=middle;whiteSpace=wrap;rounded=0;" vertex="1" parent="aukn40du1mq2aLp-cY4K-7">
          <mxGeometry x="7" y="124" width="70" height="30" as="geometry" />
        </mxCell>
        <mxCell id="aukn40du1mq2aLp-cY4K-52" value="ChangeEquip" style="text;html=1;align=center;verticalAlign=middle;whiteSpace=wrap;rounded=0;" vertex="1" parent="aukn40du1mq2aLp-cY4K-7">
          <mxGeometry x="9" y="140" width="70" height="30" as="geometry" />
        </mxCell>
        <mxCell id="aukn40du1mq2aLp-cY4K-31" value="Battle Manager Function" style="swimlane;whiteSpace=wrap;html=1;" vertex="1" parent="WIyWlLk6GJQsqaUBKTNV-1">
          <mxGeometry x="89" y="370" width="200" height="200" as="geometry" />
        </mxCell>
        <mxCell id="aukn40du1mq2aLp-cY4K-41" value="Attack Logic" style="text;html=1;align=center;verticalAlign=middle;whiteSpace=wrap;rounded=0;" vertex="1" parent="aukn40du1mq2aLp-cY4K-31">
          <mxGeometry x="10" y="30" width="80" height="30" as="geometry" />
        </mxCell>
        <mxCell id="aukn40du1mq2aLp-cY4K-42" value="Damage Calc" style="text;html=1;align=center;verticalAlign=middle;whiteSpace=wrap;rounded=0;" vertex="1" parent="aukn40du1mq2aLp-cY4K-31">
          <mxGeometry x="10" y="50" width="80" height="30" as="geometry" />
        </mxCell>
        <mxCell id="aukn40du1mq2aLp-cY4K-43" value="Actor Sort Function" style="text;html=1;align=center;verticalAlign=middle;whiteSpace=wrap;rounded=0;" vertex="1" parent="aukn40du1mq2aLp-cY4K-31">
          <mxGeometry x="10" y="70" width="80" height="30" as="geometry" />
        </mxCell>
        <mxCell id="aukn40du1mq2aLp-cY4K-44" value="Sort Characters" style="text;html=1;align=center;verticalAlign=middle;whiteSpace=wrap;rounded=0;" vertex="1" parent="aukn40du1mq2aLp-cY4K-31">
          <mxGeometry x="10" y="100" width="80" height="30" as="geometry" />
        </mxCell>
        <mxCell id="aukn40du1mq2aLp-cY4K-53" value="PlayerController Event Dispatchers" style="swimlane;whiteSpace=wrap;html=1;" vertex="1" parent="WIyWlLk6GJQsqaUBKTNV-1">
          <mxGeometry x="760" y="600" width="207" height="200" as="geometry">
            <mxRectangle x="540" y="160" width="120" height="30" as="alternateBounds" />
          </mxGeometry>
        </mxCell>
        <mxCell id="aukn40du1mq2aLp-cY4K-58" value="SelectedHero" style="text;html=1;align=center;verticalAlign=middle;whiteSpace=wrap;rounded=0;" vertex="1" parent="aukn40du1mq2aLp-cY4K-53">
          <mxGeometry x="7" y="24" width="70" height="30" as="geometry" />
        </mxCell>
        <mxCell id="aukn40du1mq2aLp-cY4K-59" value="SendHero" style="text;html=1;align=center;verticalAlign=middle;whiteSpace=wrap;rounded=0;" vertex="1" parent="aukn40du1mq2aLp-cY4K-53">
          <mxGeometry x="7" y="53" width="70" height="30" as="geometry" />
        </mxCell>
        <mxCell id="aukn40du1mq2aLp-cY4K-70" value="Battle Manager Event Dispatches" style="swimlane;whiteSpace=wrap;html=1;" vertex="1" parent="WIyWlLk6GJQsqaUBKTNV-1">
          <mxGeometry x="89" y="600" width="200" height="200" as="geometry" />
        </mxCell>
        <mxCell id="aukn40du1mq2aLp-cY4K-75" value="Game Over Dispatch" style="text;html=1;align=center;verticalAlign=middle;whiteSpace=wrap;rounded=0;" vertex="1" parent="aukn40du1mq2aLp-cY4K-70">
          <mxGeometry x="7" y="30" width="80" height="30" as="geometry" />
        </mxCell>
        <mxCell id="aukn40du1mq2aLp-cY4K-76" value="Menu Manager" style="swimlane;whiteSpace=wrap;html=1;" vertex="1" parent="WIyWlLk6GJQsqaUBKTNV-1">
          <mxGeometry x="540" y="600" width="200" height="200" as="geometry">
            <mxRectangle x="540" y="160" width="120" height="30" as="alternateBounds" />
          </mxGeometry>
        </mxCell>
        <mxCell id="aukn40du1mq2aLp-cY4K-77" value="Next" style="text;html=1;align=center;verticalAlign=middle;whiteSpace=wrap;rounded=0;" vertex="1" parent="aukn40du1mq2aLp-cY4K-76">
          <mxGeometry y="20" width="60" height="30" as="geometry" />
        </mxCell>
        <mxCell id="aukn40du1mq2aLp-cY4K-82" value="Base Character" style="swimlane;whiteSpace=wrap;html=1;" vertex="1" parent="WIyWlLk6GJQsqaUBKTNV-1">
          <mxGeometry x="1230" y="150" width="200" height="200" as="geometry">
            <mxRectangle x="540" y="160" width="120" height="30" as="alternateBounds" />
          </mxGeometry>
        </mxCell>
      </root>
    </mxGraphModel>
  </diagram>
</mxfile>
